<svg id="Layer_1" data-name="Layer 1" xmlns="http://www.w3.org/2000/svg" xmlns:xlink="http://www.w3.org/1999/xlink" viewBox="0 0 2622.85 462.1"><defs><linearGradient id="linear-gradient" x1="1254.32" y1="-38.82" x2="1254.32" y2="322.93" gradientTransform="matrix(1, 0, 0, -1, -608.55, 323.28)" gradientUnits="userSpaceOnUse"><stop offset="0" stop-color="#005ea8"/><stop offset="1" stop-color="#97c7eb"/></linearGradient><linearGradient id="linear-gradient-2" x1="1625.3" y1="-38.82" x2="1625.3" y2="322.8" xlink:href="#linear-gradient"/><linearGradient id="linear-gradient-3" x1="2063.95" y1="-39.33" x2="2063.95" y2="322.33" xlink:href="#linear-gradient"/><linearGradient id="linear-gradient-4" x1="2632.71" y1="-39.38" x2="2632.71" y2="322.28" xlink:href="#linear-gradient"/><linearGradient id="linear-gradient-5" x1="2990.93" y1="-127.34" x2="2990.93" y2="323.28" xlink:href="#linear-gradient"/><linearGradient id="linear-gradient-6" x1="857.23" y1="-138.82" x2="857.23" y2="322" xlink:href="#linear-gradient"/><linearGradient id="linear-gradient-7" x1="2364.5" y1="-39.89" x2="2364.5" y2="321.77" xlink:href="#linear-gradient"/></defs><path d="M864.53,362.1H632l.21-.24H427l61.56-65.43V67L427.35.44h232.1l-.22.24H773.4l69-.33L712.16,188.41ZM598.16,295.54l47.22,51.31,32.49-37.07L598.16,207.19Zm78,46.56H820.4L686.82,189.86,804.05,20.54l-30.64.14H676.1l25.69,29.4L605.92,184.59l97.87,126Zm-202.86-.24H613.62l-35.44-38.51V58.2l35.23-37.76H472.92L508.56,59.2V304.36ZM598.18,66.09V161L676.35,51.34,645.19,15.7Z" style="fill:url(#linear-gradient)"/><path d="M1134.54,362.1H899l62.12-65.91V209.48L868.36,51.28,794.85.48h443.8l-73.2,50.8-92.79,158.2V296.2Zm-189.21-20h143l-35.66-38V204.05l97.78-166.77,24.32-16.88H1049.93l32,22.67L1016.9,153,951.62,43.11l32-22.67H859l24.4,16.87,97.75,166.74V304.13ZM978.25,48.78l38.62,65,38.49-65L1016.8,21.51Z" style="fill:url(#linear-gradient-2)"/><path d="M1538,362.61H1372.84l-56.17-57.33V59.59L1372.77,1H1538l56.16,57.64V76.47h-111V66.74l-27.58-28.1-27.9,29V297.06l27.56,28.07,27.92-29.19v-163h111v171Zm-71.84-20h63.26l44.65-46.67v-143h-71v151Zm-84.94,0h63.1l-36.69-37.33V59.58L1444.83,21h-63.51l-44.65,46.67V297.07ZM1501.08,56.47h63.07L1529.54,21h-63.32Z" style="fill:url(#linear-gradient-3)"/><path d="M2133.76,362.66h-272.4l60.69-65.38V67.52L1861.71,1h272.12L2187,59.81v245.3Zm-61.3-20H2125l42-45.38V67.51L2125,21h-52.56L2069,24.73l31.7,35.08v245.3l-31.43,34Zm-165.25,0h131.51l3.43-3.71-31.7-35.09V58.8l31.48-34.19L2038.67,21H1906.86l35.19,38.8V305.12Zm123.24-46.5,25.35,28,24.9-26.93V67.51l-25.3-28-25,27.1Z" style="fill:url(#linear-gradient-4)"/><path d="M2141.91,450.62l44.54-69.77-.68-.32L2374.35,86.76,2367,80,2329.59,41.5l-34.84,36.18V182.16L2161.68,16.83V0h461.17L2497.51,55.54l30.67,27.74-109.79,171,140.31,130-63.25,65.29H2271.18Zm73.19-78.69.63.29-37.12,58.06,92.48-.75h101.62L2315.27,378,2502.2,86.78l-40.92-37.06L2528.34,20H2336.63l.14.15,44.38,45.71,19.19,17.49Zm218.35-76.4,11.35,85.87-54.57,48.17h96.82l43.1-44.54Zm-92.12,79,40.2,36.09,42-37.11L2409.61,268.1ZM2189.91,20l84.88,105.43V69.61L2322.56,20Z" style="fill:url(#linear-gradient-5)"/><path d="M497.36,462.1,363.69,461H131.18L65.82,394.4,211.45,261.46,97.45,86.37l32-28.53L0,1.28H477v17L339.64,186.55v-106L303.11,43.14l-39.33,40-7.54,6.78L451.91,390.61l-.71.31ZM257.68,441H363.77l96.62.77-38.64-59.64.66-.3L230.14,86.39,250,68.59,296.5,21.28H95.7L166,52,123.6,89.85,317.6,388Zm-118.1,0H241l-57-49.61,11.89-88.71L94.61,395.19Zm65.69-57.62,44,38.33,42.18-37.32-71.56-110ZM309.78,21.28l49.86,51.08v58L448.71,21.28Z" style="fill:url(#linear-gradient-6)"/><path d="M1838.58,363.17H1673.39l-56.18-57.38V60.15l56.11-58.64h165.21l56.16,57.64V304.53Zm-71.85-20H1830l44.66-46.67V67.28l-44.6-45.77h-63.32l36.92,37.62v245.4Zm-84.93,0h63.1l-36.69-37.38V60.14l37.16-38.63h-63.51l-44.65,46.67V297.63Zm46.41-45.55,27.56,28.07,27.92-29.19V67.28l-27.58-28.1-27.9,29Z" style="fill:url(#linear-gradient-7)"/></svg>